{"accessors" : [{"bufferView" : 0, "byteOffset" : 0, "componentType" : 5123, "count" : 2880, "type" : "SCALAR", "max" : [2879], "min" : [0]}, {"bufferView" : 1, "byteOffset" : 0, "componentType" : 5126, "count" : 2880, "type" : "VEC3", "max" : [0.9999997019767761, 1, 1], "min" : [-0.9999990463256836, -0.9999993443489075, -1], "name" : "POSITION"}, {"bufferView" : 1, "byteOffset" : 12, "componentType" : 5126, "count" : 2880, "type" : "VEC3", "max" : [0.9904428124427795, 0.9904425144195557, 0.995142936706543], "min" : [-0.9904429316520691, -0.9904428124427795, -0.9951428771018982], "name" : "NORMAL"}, {"bufferView" : 1, "byteOffset" : 24, "componentType" : 5126, "count" : 2880, "type" : "VEC2", "max" : [1, -0], "min" : [0, -1], "name" : "TEXCOORD_0"}], "asset" : {"generator" : "Aspose.3D 23.2", "version" : "2.0"}, "buffers" : [{"uri" : "data:application/octet-stream;base64,", "byteLength" : 97928}], "bufferViews" : [{"buffer" : 0, "byteOffset" : 0, "byteLength" : 5760, "target" : 34963}, {"buffer" : 0, "byteOffset" : 5764, "byteLength" : 92160, "byteStride" : 32, "target" : 34962}], "materials" : [{"name" : "Material.001", "pbrMetallicRoughness" : {"baseColorFactor" : [0.8000000715255737, 0.01137510035187006, 0.005611273925751448, 1], "metallicFactor" : 0, "roughnessFactor" : 0}, "emissiveFactor" : [0, 0, 0], "alphaMode" : "OPAQUE", "doubleSided" : false}], "meshes" : [{"primitives" : [{"attributes" : {"POSITION" : 1, "NORMAL" : 2, "TEXCOORD_0" : 3}, "indices" : 0, "material" : 0, "mode" : 4}], "name" : "Sphere"}], "nodes" : [{"matrix" : [2, 0, 0, 0, 0, -3.258413591052859E-07, -1.9999999999999734, 0, 0, 1.9999999999999734, -3.258413591052859E-07, 0, 0, 2.6645352591003757E-13, -6.999998569488525, 1], "mesh" : 0, "name" : "Sphere"}], "scene" : 0, "scenes" : [{"nodes" : [0]}]}